<?xml version="1.0" encoding="UTF-8" standalone="no"?>
<svg xmlns:dc="http://purl.org/dc/elements/1.1/" xmlns:cc="http://creativecommons.org/ns#" xmlns:rdf="http://www.w3.org/1999/02/22-rdf-syntax-ns#" xmlns:svg="http://www.w3.org/2000/svg" xmlns="http://www.w3.org/2000/svg" xmlns:sodipodi="http://sodipodi.sourceforge.net/DTD/sodipodi-0.dtd" xmlns:inkscape="http://www.inkscape.org/namespaces/inkscape" width="100" height="100" id="svg7960" version="1.1" inkscape:version="0.48.4 r9939" sodipodi:docname="NETBanking.svg">
  <defs id="defs7962">
    <clipPath clipPathUnits="userSpaceOnUse" id="clipPath3094-8">
      <path style="font-size:medium;font-style:normal;font-variant:normal;font-weight:normal;font-stretch:normal;text-indent:0;text-align:start;text-decoration:none;line-height:normal;letter-spacing:normal;word-spacing:normal;text-transform:none;direction:ltr;block-progression:tb;writing-mode:lr-tb;text-anchor:start;baseline-shift:baseline;color:#000000;fill:#ee0028;fill-opacity:1;stroke:none;stroke-width:1px;marker:none;visibility:visible;display:inline;overflow:visible;enable-background:accumulate;font-family:Sans;-inkscape-font-specification:Sans" d="m 1475.7812,430.15625 0,1 7.4688,0 0,-1 -7.4688,0 z m -1.6562,2.53125 0,1 10.7812,0 0,-1 -10.7812,0 z m -0.625,2.5 0,1 12.0625,0 0,-1 -12.0625,0 z m 0.625,2.53125 0,1 10.7812,0 0,-1 -10.7812,0 z m 0,2.53125 0,1 10.7812,0 0,-1 -10.7812,0 z" id="path3096-8" inkscape:connector-curvature="0"/>
    </clipPath>
    <clipPath clipPathUnits="userSpaceOnUse" id="clipPath3094-8-2">
      <path style="font-size:medium;font-style:normal;font-variant:normal;font-weight:normal;font-stretch:normal;text-indent:0;text-align:start;text-decoration:none;line-height:normal;letter-spacing:normal;word-spacing:normal;text-transform:none;direction:ltr;block-progression:tb;writing-mode:lr-tb;text-anchor:start;baseline-shift:baseline;color:#000000;fill:#ee0028;fill-opacity:1;stroke:none;stroke-width:1px;marker:none;visibility:visible;display:inline;overflow:visible;enable-background:accumulate;font-family:Sans;-inkscape-font-specification:Sans" d="m 1475.7812,430.15625 0,1 7.4688,0 0,-1 -7.4688,0 z m -1.6562,2.53125 0,1 10.7812,0 0,-1 -10.7812,0 z m -0.625,2.5 0,1 12.0625,0 0,-1 -12.0625,0 z m 0.625,2.53125 0,1 10.7812,0 0,-1 -10.7812,0 z m 0,2.53125 0,1 10.7812,0 0,-1 -10.7812,0 z" id="path3096-8-4" inkscape:connector-curvature="0"/>
    </clipPath>
  </defs>
  <sodipodi:namedview id="base" pagecolor="#ffffff" bordercolor="#666666" borderopacity="1.0" inkscape:pageopacity="0.0" inkscape:pageshadow="2" inkscape:zoom="1.979899" inkscape:cx="120.66649" inkscape:cy="91.541357" inkscape:document-units="px" inkscape:current-layer="g5258" showgrid="false" inkscape:window-width="667" inkscape:window-height="689" inkscape:window-x="683" inkscape:window-y="0" inkscape:window-maximized="0"/>
  
  <g inkscape:label="Layer 1" inkscape:groupmode="layer" id="layer1" transform="translate(0,-952.36218)">
    <g transform="translate(93.789483,664.77887)" id="g5258">
      <rect rx="3.5986683" ry="3.5986683" y="317.7287" x="-73.878845" height="40.714283" width="63.214283" id="rect5260" style="fill:#f9f9f9;fill-opacity:1;fill-rule:evenodd;stroke:#000000;stroke-width:0.80000001;stroke-linecap:round;stroke-linejoin:round;stroke-miterlimit:4;stroke-opacity:1;stroke-dasharray:none;stroke-dashoffset:0"/>
      <g style="font-size:22.06719208px;font-style:normal;font-weight:normal;line-height:125%;letter-spacing:0px;word-spacing:0px;fill:#4d4d4d;fill-opacity:1;stroke:none;font-family:Sans;-inkscape-font-specification:'Segoe WP Black, Ultra-Bold'" id="text5262">
        <path d="m -57.525694,338.45988 -5.452148,-7.4563 c -0.229873,-0.31606 -0.431006,-0.60519 -0.6034,-0.86739 -0.172406,-0.26218 -0.323256,-0.50462 -0.45255,-0.72731 l -0.0431,0 c 0.02155,0.38072 0.03771,0.7794 0.04849,1.19602 0.01077,0.41664 0.01616,0.87279 0.01616,1.36843 l 0,6.48655 -4.309998,0 0,-15.45135 4.396198,0 5.225873,7.08995 c 0.06464,0.0934 0.143656,0.20473 0.23705,0.33402 0.09337,0.12931 0.186755,0.2622 0.28015,0.39868 0.09337,0.13649 0.181367,0.26938 0.263988,0.39867 0.0826,0.12931 0.14545,0.24424 0.188562,0.3448 l 0.0431,0 c -0.03593,-0.26577 -0.05568,-0.54772 -0.05926,-0.84583 -0.0036,-0.2981 -0.0054,-0.56209 -0.0054,-0.79197 l 0,-6.92832 4.309999,0 0,15.45135 z" style="font-variant:normal;font-weight:800;font-stretch:normal;text-align:start;line-height:125%;writing-mode:lr-tb;text-anchor:start;fill:#4d4d4d;font-family:Segoe WP Black;-inkscape-font-specification:'Segoe WP Black, Ultra-Bold'" id="path2992"/>
        <path d="m -50.392646,338.45988 0,-15.45135 9.622071,0 0,3.64195 -4.967273,0 0,2.25197 4.665574,0 0,3.64195 -4.665574,0 0,2.27353 5.322848,0 0,3.64195 z" style="font-variant:normal;font-weight:800;font-stretch:normal;text-align:start;line-height:125%;writing-mode:lr-tb;text-anchor:start;fill:#4d4d4d;font-family:Segoe WP Black;-inkscape-font-specification:'Segoe WP Black, Ultra-Bold'" id="path2994"/>
        <path d="m -30.38348,326.65048 0,11.8094 -4.676348,0 0,-11.8094 -4.320773,0 0,-3.64195 13.37177,0 0,3.64195 z" style="font-variant:normal;font-weight:800;font-stretch:normal;text-align:start;line-height:125%;writing-mode:lr-tb;text-anchor:start;fill:#4d4d4d;font-family:Segoe WP Black;-inkscape-font-specification:'Segoe WP Black, Ultra-Bold'" id="path2996"/>
        <path d="m -60.688872,349.20915 c -9e-6,0.41989 -0.07259,0.80962 -0.21776,1.1692 -0.145183,0.35959 -0.371877,0.67115 -0.680083,0.9347 -0.308223,0.26354 -0.703542,0.47014 -1.185957,0.61978 -0.48243,0.14964 -1.063125,0.22446 -1.742085,0.22446 l -4.382012,0 0,-9.60827 4.080498,0 c 1.281989,1e-5 2.240134,0.19432 2.874439,0.58293 0.634289,0.38863 0.951437,0.96932 0.951446,1.74209 -9e-6,0.23228 -0.03463,0.44111 -0.103855,0.62648 -0.06925,0.18538 -0.160817,0.35177 -0.274713,0.49917 -0.113914,0.14741 -0.243454,0.27584 -0.388619,0.38527 -0.145182,0.10944 -0.293706,0.20325 -0.445572,0.28141 -0.151881,0.0782 -0.301522,0.14072 -0.448922,0.18761 -0.147414,0.0469 -0.279187,0.0815 -0.395319,0.10386 l 0,0.0268 c 0.375211,0.0447 0.70911,0.13959 1.001699,0.28476 0.292573,0.14518 0.539368,0.31939 0.740386,0.52263 0.201001,0.20324 0.353991,0.42771 0.458972,0.67338 0.104963,0.24568 0.157448,0.49359 0.157457,0.74374 z m -3.376963,-3.83259 c -6e-6,-0.31714 -0.125078,-0.54495 -0.375218,-0.68343 -0.250151,-0.13847 -0.591867,-0.2077 -1.02515,-0.20771 l -0.536026,0 0,1.81579 0.837541,0 c 0.16527,0 0.316027,-0.0235 0.452272,-0.0704 0.136234,-0.0469 0.252373,-0.11166 0.348417,-0.19431 0.09603,-0.0826 0.169735,-0.1809 0.22111,-0.29481 0.05136,-0.1139 0.07705,-0.23562 0.07705,-0.36517 z m 0.301515,3.81919 c -6e-6,-0.14294 -0.02792,-0.2736 -0.08375,-0.39197 -0.05584,-0.11837 -0.131779,-0.21888 -0.227811,-0.30152 -0.09604,-0.0826 -0.211066,-0.14628 -0.345067,-0.19096 -0.134012,-0.0447 -0.281419,-0.067 -0.442222,-0.067 l -1.139055,0 0,1.96319 0.964847,0 c 0.187604,10e-6 0.359579,-0.0223 0.515925,-0.067 0.156335,-0.0447 0.290342,-0.10944 0.402019,-0.19431 0.111667,-0.0849 0.198771,-0.18984 0.261313,-0.31491 0.06253,-0.12507 0.0938,-0.27025 0.09381,-0.43552 z" style="font-size:13.72226429px;font-variant:normal;font-weight:800;font-stretch:normal;text-align:start;line-height:125%;writing-mode:lr-tb;text-anchor:start;fill:#4d4d4d;font-family:Segoe WP Black;-inkscape-font-specification:'Segoe WP Black, Ultra-Bold'" id="path2998"/>
        <path d="m -55.864638,352.15729 0,-1.04525 -0.0268,0 c -0.214415,0.37968 -0.494711,0.67673 -0.840891,0.89114 -0.346187,0.21441 -0.762723,0.32162 -1.24961,0.32162 -0.348419,0 -0.652167,-0.0547 -0.911244,-0.16416 -0.259081,-0.10944 -0.474608,-0.2602 -0.646582,-0.45227 -0.171975,-0.19208 -0.300398,-0.41654 -0.385268,-0.67339 -0.08487,-0.25684 -0.127307,-0.53267 -0.127307,-0.82749 0,-0.25014 0.0335,-0.50028 0.100505,-0.75043 0.067,-0.25014 0.190959,-0.48242 0.371868,-0.69684 0.180908,-0.2144 0.433287,-0.40089 0.757137,-0.55947 0.323847,-0.15857 0.742617,-0.27136 1.256311,-0.33837 l 1.701882,-0.22111 c -4e-6,-0.11613 -0.02792,-0.22111 -0.08375,-0.31492 -0.05584,-0.0938 -0.132894,-0.1742 -0.231161,-0.24121 -0.09828,-0.067 -0.215531,-0.11836 -0.351767,-0.1541 -0.136244,-0.0357 -0.284767,-0.0536 -0.445572,-0.0536 -0.227814,10e-6 -0.454508,0.019 -0.680083,0.057 -0.22558,0.038 -0.442223,0.0882 -0.649931,0.15075 -0.207712,0.0625 -0.404255,0.1329 -0.589629,0.21106 -0.185376,0.0782 -0.356235,0.15747 -0.512574,0.23786 l 0,-1.85598 c 0.165273,-0.0715 0.362933,-0.14071 0.592978,-0.20771 0.230043,-0.067 0.473488,-0.12507 0.730336,-0.17421 0.256843,-0.0491 0.514805,-0.0893 0.773887,-0.12061 0.259076,-0.0313 0.502521,-0.0469 0.730335,-0.0469 0.62536,1e-5 1.150218,0.0681 1.574577,0.20436 0.424348,0.13624 0.766064,0.33949 1.025149,0.60973 0.259073,0.27025 0.444448,0.6075 0.556127,1.01175 0.111665,0.40425 0.167501,0.87663 0.167508,1.41712 l 0,3.78568 z m -0.964847,-3.00845 c -0.21888,0.0357 -0.394205,0.10833 -0.525975,0.21776 -0.131776,0.10944 -0.197662,0.26244 -0.19766,0.45898 -2e-6,0.0759 0.01228,0.15187 0.03685,0.22781 0.02456,0.0759 0.06365,0.14517 0.117256,0.20771 0.0536,0.0625 0.123953,0.11279 0.21106,0.15075 0.0871,0.038 0.193189,0.057 0.318266,0.057 0.142936,0 0.275826,-0.0279 0.398669,-0.0838 0.122835,-0.0558 0.228923,-0.13624 0.318265,-0.24121 0.08933,-0.10497 0.159687,-0.23116 0.21106,-0.37857 0.05137,-0.1474 0.07705,-0.31044 0.07705,-0.48912 l 0,-0.26131 z" style="font-size:13.72226429px;font-variant:normal;font-weight:800;font-stretch:normal;text-align:start;line-height:125%;writing-mode:lr-tb;text-anchor:start;fill:#4d4d4d;font-family:Segoe WP Black;-inkscape-font-specification:'Segoe WP Black, Ultra-Bold'" id="path3000"/>
        <path d="m -47.529434,352.15729 0,-3.74548 c -5e-6,-0.22334 -0.01676,-0.41095 -0.05025,-0.56283 -0.03351,-0.15187 -0.08488,-0.27471 -0.154108,-0.36852 -0.06924,-0.0938 -0.154112,-0.1608 -0.254612,-0.20101 -0.10051,-0.0402 -0.217765,-0.0603 -0.351767,-0.0603 -0.138478,0 -0.25685,0.029 -0.355117,0.0871 -0.09828,0.0581 -0.178679,0.13513 -0.241212,0.23117 -0.06254,0.096 -0.109442,0.20548 -0.140707,0.32831 -0.03127,0.12284 -0.04691,0.24903 -0.0469,0.37857 l 0,3.91299 -2.854338,0 0,-6.86113 2.854338,0 0,1.07205 0.0268,0 c 0.0938,-0.1608 0.20994,-0.31603 0.348417,-0.46567 0.138469,-0.14964 0.29816,-0.28141 0.479073,-0.39532 0.180904,-0.1139 0.383031,-0.20547 0.60638,-0.27472 0.223338,-0.0692 0.469017,-0.10384 0.737035,-0.10385 0.32161,1e-5 0.619774,0.0469 0.894494,0.14071 0.274706,0.0938 0.512567,0.25126 0.713584,0.47237 0.201002,0.22112 0.35846,0.5137 0.472373,0.87774 0.113898,0.36406 0.17085,0.81409 0.170858,1.35012 l 0,4.1877 z" style="font-size:13.72226429px;font-variant:normal;font-weight:800;font-stretch:normal;text-align:start;line-height:125%;writing-mode:lr-tb;text-anchor:start;fill:#4d4d4d;font-family:Segoe WP Black;-inkscape-font-specification:'Segoe WP Black, Ultra-Bold'" id="path3002"/>
        <path d="m -38.96642,352.15729 -1.527674,-3.52437 -0.0268,0 0,3.52437 -2.854338,0 0,-10.15769 2.854338,0 0,6.51941 0.0268,0 1.386967,-3.22285 3.216156,0 -1.85599,3.14245 1.963195,3.71868 z" style="font-size:13.72226429px;font-variant:normal;font-weight:800;font-stretch:normal;text-align:start;line-height:125%;writing-mode:lr-tb;text-anchor:start;fill:#4d4d4d;font-family:Segoe WP Black;-inkscape-font-specification:'Segoe WP Black, Ultra-Bold'" id="path3004"/>
        <path d="m -32.205792,343.44687 c -4e-6,0.18761 -0.03574,0.36406 -0.107206,0.52932 -0.07147,0.16529 -0.174211,0.30823 -0.308215,0.42882 -0.134009,0.12062 -0.3004,0.21665 -0.499174,0.28812 -0.198779,0.0715 -0.425473,0.10721 -0.680083,0.1072 -0.24568,1e-5 -0.466791,-0.0368 -0.663332,-0.11055 -0.196544,-0.0737 -0.362935,-0.17197 -0.499174,-0.29482 -0.136241,-0.12283 -0.241212,-0.26689 -0.314915,-0.43217 -0.0737,-0.16526 -0.110556,-0.33724 -0.110555,-0.51592 -10e-7,-0.20547 0.0402,-0.38973 0.120605,-0.55278 0.0804,-0.16303 0.190959,-0.3015 0.331666,-0.41542 0.140706,-0.1139 0.308214,-0.201 0.502525,-0.26131 0.194307,-0.0603 0.405367,-0.0904 0.63318,-0.0905 0.24121,1e-5 0.460087,0.0324 0.656632,0.0972 0.19654,0.0648 0.364048,0.15523 0.502525,0.27136 0.138469,0.11615 0.245675,0.25462 0.321615,0.41542 0.07593,0.16082 0.113902,0.33949 0.113906,0.53603 z m -3.021847,8.71042 0,-6.86113 2.854338,0 0,6.86113 z" style="font-size:13.72226429px;font-variant:normal;font-weight:800;font-stretch:normal;text-align:start;line-height:125%;writing-mode:lr-tb;text-anchor:start;fill:#4d4d4d;font-family:Segoe WP Black;-inkscape-font-specification:'Segoe WP Black, Ultra-Bold'" id="path3006"/>
        <path d="m -26.544019,352.15729 0,-3.74548 c -6e-6,-0.22334 -0.01676,-0.41095 -0.05025,-0.56283 -0.03351,-0.15187 -0.08488,-0.27471 -0.154107,-0.36852 -0.06924,-0.0938 -0.154113,-0.1608 -0.254613,-0.20101 -0.100509,-0.0402 -0.217765,-0.0603 -0.351767,-0.0603 -0.138477,0 -0.25685,0.029 -0.355117,0.0871 -0.09827,0.0581 -0.178679,0.13513 -0.241212,0.23117 -0.06254,0.096 -0.109442,0.20548 -0.140706,0.32831 -0.03127,0.12284 -0.04691,0.24903 -0.0469,0.37857 l 0,3.91299 -2.854338,0 0,-6.86113 2.854338,0 0,1.07205 0.0268,0 c 0.0938,-0.1608 0.209939,-0.31603 0.348417,-0.46567 0.138469,-0.14964 0.29816,-0.28141 0.479073,-0.39532 0.180904,-0.1139 0.38303,-0.20547 0.606379,-0.27472 0.223339,-0.0692 0.469017,-0.10384 0.737036,-0.10385 0.321609,1e-5 0.619773,0.0469 0.894493,0.14071 0.274706,0.0938 0.512568,0.25126 0.713585,0.47237 0.201002,0.22112 0.358459,0.5137 0.472372,0.87774 0.113898,0.36406 0.170851,0.81409 0.170859,1.35012 l 0,4.1877 z" style="font-size:13.72226429px;font-variant:normal;font-weight:800;font-stretch:normal;text-align:start;line-height:125%;writing-mode:lr-tb;text-anchor:start;fill:#4d4d4d;font-family:Segoe WP Black;-inkscape-font-specification:'Segoe WP Black, Ultra-Bold'" id="path3008"/>
        <path d="m -14.952457,351.19914 c -8e-6,0.36629 -0.03574,0.72364 -0.107205,1.07205 -0.07148,0.34842 -0.1865,0.67674 -0.345067,0.98495 -0.158581,0.30822 -0.364058,0.59298 -0.616429,0.85429 -0.252386,0.26131 -0.559484,0.48577 -0.921295,0.67339 -0.361823,0.1876 -0.780593,0.33389 -1.256311,0.43887 -0.475727,0.10497 -1.017336,0.15745 -1.624829,0.15745 -0.214413,0 -0.428823,-0.009 -0.643231,-0.0268 -0.214412,-0.0179 -0.415422,-0.0424 -0.603029,-0.0737 -0.187611,-0.0313 -0.357352,-0.067 -0.509224,-0.10721 -0.151876,-0.0402 -0.270248,-0.0804 -0.355118,-0.1206 l 0,-2.23791 c 0.0938,0.0581 0.213293,0.12172 0.358468,0.19096 0.145172,0.0692 0.308213,0.13289 0.489123,0.19096 0.180907,0.0581 0.372983,0.1072 0.576228,0.14741 0.203241,0.0402 0.405367,0.0603 0.60638,0.0603 0.348413,0 0.653277,-0.0447 0.914594,-0.13401 0.261308,-0.0893 0.481302,-0.21106 0.659982,-0.36517 0.17867,-0.1541 0.312677,-0.33278 0.402019,-0.53602 0.08933,-0.20324 0.134001,-0.421 0.134007,-0.65328 l 0,-0.42212 -0.0268,0 c -0.07594,0.11614 -0.176446,0.23563 -0.301514,0.35846 -0.125078,0.12284 -0.272485,0.23452 -0.442222,0.33502 -0.169745,0.10051 -0.359588,0.18203 -0.569527,0.24456 -0.209947,0.0625 -0.439992,0.0938 -0.690134,0.0938 -0.446691,0 -0.847593,-0.0804 -1.202708,-0.24121 -0.355119,-0.16081 -0.656633,-0.39086 -0.904544,-0.69014 -0.247912,-0.29928 -0.436638,-0.66333 -0.566177,-1.09215 -0.12954,-0.42882 -0.19431,-0.90901 -0.194309,-1.44057 -10e-7,-0.62089 0.0871,-1.16474 0.261312,-1.63153 0.174208,-0.46678 0.405369,-0.8554 0.693484,-1.16586 0.288112,-0.31044 0.618661,-0.54383 0.991648,-0.70018 0.372982,-0.15633 0.75825,-0.2345 1.155806,-0.23451 0.241208,1e-5 0.455618,0.0257 0.643231,0.077 0.187605,0.0514 0.352879,0.11838 0.495824,0.20101 0.142935,0.0827 0.265775,0.17645 0.368518,0.28142 0.102733,0.10497 0.189837,0.21106 0.261312,0.31826 l 0.0268,0 0,-0.71023 2.840937,0 z m -2.794035,-2.66673 c -5e-6,-0.14293 -0.01564,-0.29146 -0.0469,-0.44557 -0.03127,-0.1541 -0.08488,-0.29481 -0.160808,-0.42212 -0.07594,-0.1273 -0.177564,-0.23339 -0.304865,-0.31826 -0.127311,-0.0849 -0.287002,-0.12731 -0.479073,-0.12731 -0.165279,0 -0.313803,0.0391 -0.445572,0.11726 -0.131776,0.0782 -0.243448,0.18761 -0.335016,0.32831 -0.09157,0.14071 -0.160811,0.3071 -0.20771,0.49918 -0.0469,0.19208 -0.07036,0.40202 -0.07035,0.62983 -3e-6,0.44222 0.0804,0.79287 0.241211,1.05195 0.160805,0.25908 0.415417,0.38862 0.763837,0.38862 0.169738,0 0.320495,-0.0369 0.452272,-0.11056 0.131769,-0.0737 0.241207,-0.17644 0.328316,-0.30821 0.0871,-0.13178 0.152986,-0.287 0.19766,-0.46568 0.04466,-0.17867 0.067,-0.37298 0.067,-0.58293 z" style="font-size:13.72226429px;font-variant:normal;font-weight:800;font-stretch:normal;text-align:start;line-height:125%;writing-mode:lr-tb;text-anchor:start;fill:#4d4d4d;font-family:Segoe WP Black;-inkscape-font-specification:'Segoe WP Black, Ultra-Bold'" id="path3010"/>
      </g>
    </g>
  </g>

	
	
	<metadata>
		<rdf:RDF xmlns:rdf="http://www.w3.org/1999/02/22-rdf-syntax-ns#" xmlns:rdfs="http://www.w3.org/2000/01/rdf-schema#" xmlns:dc="http://purl.org/dc/elements/1.1/">
			<rdf:Description about="https://iconscout.com/legal#licenses" dc:title="Netbanking, Credit, Debit, Card, Bank, Transaction" dc:description="Netbanking, Credit, Debit, Card, Bank, Transaction" dc:publisher="Iconscout" dc:date="2016-12-14" dc:format="image/svg+xml" dc:language="en">
				<dc:creator>
					<rdf:Bag>
						<rdf:li>Dalpat Prajapati</rdf:li>
					</rdf:Bag>
				</dc:creator>
			</rdf:Description>
		</rdf:RDF>
    </metadata></svg>
